<?xml version="1.0" encoding="UTF-8"?>
<!DOCTYPE svg PUBLIC "-//W3C//DTD SVG 1.1//EN" "http://www.w3.org/Graphics/SVG/1.1/DTD/svg11.dtd">
<svg xmlns="http://www.w3.org/2000/svg" version="1.1" width="1500px" height="1500px" style="shape-rendering:geometricPrecision; text-rendering:geometricPrecision; image-rendering:optimizeQuality; fill-rule:evenodd; clip-rule:evenodd" xmlns:xlink="http://www.w3.org/1999/xlink">
<g><path style="opacity:1" fill="#242424" d="M 696.5,-0.5 C 731.5,-0.5 766.5,-0.5 801.5,-0.5C 997.301,16.205 1162.8,95.205 1298,236.5C 1421.6,371.778 1488.76,531.445 1499.5,715.5C 1499.5,737.833 1499.5,760.167 1499.5,782.5C 1495.52,858.729 1480.52,932.729 1454.5,1004.5C 1362.2,923.326 1258.53,859.993 1143.5,814.5C 1152.16,806.005 1161,797.672 1170,789.5C 1170.67,788.833 1170.67,788.167 1170,787.5C 1138.53,759.034 1107.37,730.201 1076.5,701C 1032.03,711.033 987.699,721.867 943.5,733.5C 942.353,733.182 941.519,732.516 941,731.5C 937.142,717.787 931.642,704.787 924.5,692.5C 963.383,668.804 1002.55,645.47 1042,622.5C 1042.33,598.833 1042.67,575.167 1043,551.5C 1044.72,531.53 1045.89,511.53 1046.5,491.5C 1003.13,492.681 959.794,494.681 916.5,497.5C 893.544,536.582 870.211,575.415 846.5,614C 835.037,609.171 823.37,604.504 811.5,600C 809.26,599.023 806.927,598.523 804.5,598.5C 814.529,555.719 825.195,513.052 836.5,470.5C 837.39,468.218 837.556,465.885 837,463.5C 807.667,432.167 778.333,400.833 749,369.5C 742.493,376.532 735.993,383.532 729.5,390.5C 707.007,414.801 684.507,439.134 662,463.5C 661.333,465.5 661.333,467.5 662,469.5C 672.674,512.356 683.507,555.189 694.5,598C 679.882,602.81 665.882,608.976 652.5,616.5C 629.045,577.092 605.711,537.592 582.5,498C 542.826,496.994 503.159,495.828 463.5,494.5C 459.702,493.517 455.702,493.183 451.5,493.5C 451.187,497.042 451.521,500.375 452.5,503.5C 454.001,543.511 455.834,583.511 458,623.5C 497.084,647.292 536.25,670.959 575.5,694.5C 568.173,707.822 562.506,721.822 558.5,736.5C 514.044,725.426 469.71,714.092 425.5,702.5C 393.849,731.65 362.349,760.983 331,790.5C 330.333,791.167 330.333,791.833 331,792.5C 339.698,800.366 348.198,808.366 356.5,816.5C 241.612,863.516 137.945,927.85 45.5,1009.5C 24.7605,954.998 10.9272,898.665 4,840.5C -18.989,623.306 38.3443,430.972 176,263.5C 313.423,105.701 486.923,17.7014 696.5,-0.5 Z"/></g>
<g><path style="opacity:1" fill="#f1c763" d="M 673.5,175.5 C 678.5,174.833 683.5,174.167 688.5,173.5C 699.175,173.484 709.842,173.15 720.5,172.5C 724.565,172.489 728.232,171.822 731.5,170.5C 737.969,152.882 744.469,135.215 751,117.5C 758.263,135.547 764.763,153.88 770.5,172.5C 790.181,172.71 809.848,173.377 829.5,174.5C 813.856,186.149 798.522,198.149 783.5,210.5C 788.789,228.939 794.456,247.273 800.5,265.5C 800.167,265.833 799.833,266.167 799.5,266.5C 783.5,255.5 767.5,244.5 751.5,233.5C 735.071,244.464 718.904,255.797 703,267.5C 708.298,248.557 713.798,229.557 719.5,210.5C 704.175,198.836 688.842,187.169 673.5,175.5 Z"/></g>
<g><path style="opacity:1" fill="#191a1f" d="M 731.5,170.5 C 728.232,171.822 724.565,172.489 720.5,172.5C 709.842,173.15 699.175,173.484 688.5,173.5C 683.167,173.5 677.833,173.5 672.5,173.5C 692.048,172.051 711.714,171.051 731.5,170.5 Z"/></g>
<g><path style="opacity:1" fill="#b39651" d="M 672.5,173.5 C 677.833,173.5 683.167,173.5 688.5,173.5C 683.5,174.167 678.5,174.833 673.5,175.5C 672.662,175.158 672.328,174.492 672.5,173.5 Z"/></g>
<g><path style="opacity:1" fill="#f2c864" d="M 836.5,470.5 C 825.195,513.052 814.529,555.719 804.5,598.5C 806.927,598.523 809.26,599.023 811.5,600C 823.37,604.504 835.037,609.171 846.5,614C 870.211,575.415 893.544,536.582 916.5,497.5C 959.794,494.681 1003.13,492.681 1046.5,491.5C 1045.89,511.53 1044.72,531.53 1043,551.5C 1042.67,575.167 1042.33,598.833 1042,622.5C 1002.55,645.47 963.383,668.804 924.5,692.5C 931.642,704.787 937.142,717.787 941,731.5C 941.519,732.516 942.353,733.182 943.5,733.5C 987.699,721.867 1032.03,711.033 1076.5,701C 1107.37,730.201 1138.53,759.034 1170,787.5C 1170.67,788.167 1170.67,788.833 1170,789.5C 1161,797.672 1152.16,806.005 1143.5,814.5C 916.545,728.668 686.212,718.502 452.5,784C 420.093,793.747 388.093,804.58 356.5,816.5C 348.198,808.366 339.698,800.366 331,792.5C 330.333,791.833 330.333,791.167 331,790.5C 362.349,760.983 393.849,731.65 425.5,702.5C 469.71,714.092 514.044,725.426 558.5,736.5C 562.506,721.822 568.173,707.822 575.5,694.5C 536.25,670.959 497.084,647.292 458,623.5C 455.834,583.511 454.001,543.511 452.5,503.5C 452.5,500.5 452.5,497.5 452.5,494.5C 456.167,494.5 459.833,494.5 463.5,494.5C 503.159,495.828 542.826,496.994 582.5,498C 605.711,537.592 629.045,577.092 652.5,616.5C 665.882,608.976 679.882,602.81 694.5,598C 683.507,555.189 672.674,512.356 662,469.5C 661.333,467.5 661.333,465.5 662,463.5C 684.507,439.134 707.007,414.801 729.5,390.5C 730.239,390.631 730.906,390.464 731.5,390C 737.458,383.887 743.291,377.72 749,371.5C 778.35,402.683 807.517,434.016 836.5,465.5C 835.265,467.316 835.265,468.983 836.5,470.5 Z"/></g>
<g><path style="opacity:1" fill="#e6cb64" d="M 836.5,470.5 C 835.265,468.983 835.265,467.316 836.5,465.5C 807.517,434.016 778.35,402.683 749,371.5C 743.291,377.72 737.458,383.887 731.5,390C 730.906,390.464 730.239,390.631 729.5,390.5C 735.993,383.532 742.493,376.532 749,369.5C 778.333,400.833 807.667,432.167 837,463.5C 837.556,465.885 837.39,468.218 836.5,470.5 Z"/></g>
<g><path style="opacity:1" fill="#877443" d="M 463.5,494.5 C 459.833,494.5 456.167,494.5 452.5,494.5C 452.5,497.5 452.5,500.5 452.5,503.5C 451.521,500.375 451.187,497.042 451.5,493.5C 455.702,493.183 459.702,493.517 463.5,494.5 Z"/></g>
<g><path style="opacity:1" fill="#f1c763" d="M 1309.5,553.5 C 1315.17,554.167 1320.83,554.833 1326.5,555.5C 1311.03,566.813 1296.03,578.646 1281.5,591C 1287.26,609.884 1292.76,628.718 1298,647.5C 1281.97,635.972 1265.81,624.639 1249.5,613.5C 1233.19,624.639 1217.03,635.972 1201,647.5C 1204.05,633.311 1208.05,619.311 1213,605.5C 1214.65,600.231 1215.65,594.898 1216,589.5C 1200.74,578.121 1185.58,566.621 1170.5,555C 1190.13,553.576 1209.79,553.076 1229.5,553.5C 1235.7,534.708 1242.2,516.042 1249,497.5C 1255.98,515.611 1262.48,533.944 1268.5,552.5C 1282.15,553.499 1295.82,553.833 1309.5,553.5 Z"/></g>
<g><path style="opacity:1" fill="#f1c763" d="M 172.5,558.5 C 178.167,557.833 183.833,557.167 189.5,556.5C 203.502,556.227 217.502,555.894 231.5,555.5C 237.217,536.635 243.55,517.969 250.5,499.5C 257.174,517.857 263.841,536.19 270.5,554.5C 290.146,555.77 309.813,556.604 329.5,557C 313.795,569.178 298.128,581.345 282.5,593.5C 288.299,610.73 293.799,628.063 299,645.5C 299.667,646.833 299.667,648.167 299,649.5C 283.157,638.247 267.157,627.247 251,616.5C 234.922,627.124 219.089,638.124 203.5,649.5C 202.386,648.277 202.219,646.944 203,645.5C 209.019,628.039 214.019,610.372 218,592.5C 202.893,581.036 187.726,569.703 172.5,558.5 Z"/></g>
<g><path style="opacity:1" fill="#bb9e54" d="M 1309.5,553.5 C 1315.54,553.171 1321.54,553.504 1327.5,554.5C 1327.38,555.107 1327.04,555.44 1326.5,555.5C 1320.83,554.833 1315.17,554.167 1309.5,553.5 Z"/></g>
<g><path style="opacity:1" fill="#ae924f" d="M 189.5,556.5 C 183.833,557.167 178.167,557.833 172.5,558.5C 171.957,558.44 171.624,558.107 171.5,557.5C 177.463,556.504 183.463,556.171 189.5,556.5 Z"/></g>
<g><path style="opacity:1" fill="#5782a7" d="M 1143.5,814.5 C 1258.53,859.993 1362.2,923.326 1454.5,1004.5C 1445.63,1031.13 1434.63,1056.8 1421.5,1081.5C 1396.02,1060.19 1370.35,1039.02 1344.5,1018C 1185.59,896.071 1006.59,821.071 807.5,793C 624.048,768.992 447.715,792.992 278.5,865C 193.719,902.713 116.052,951.546 45.5,1011.5C 45.5,1010.83 45.5,1010.17 45.5,1009.5C 137.945,927.85 241.612,863.516 356.5,816.5C 388.093,804.58 420.093,793.747 452.5,784C 686.212,718.502 916.545,728.668 1143.5,814.5 Z"/></g>
<g><path style="opacity:1" fill="#326995" d="M 1421.5,1081.5 C 1396.42,1134.02 1365.09,1182.36 1327.5,1226.5C 1222.5,1087.65 1089.17,986.153 927.5,922C 739.275,850.54 546.275,835.207 348.5,876C 237.768,899.868 137.102,945.702 46.5,1013.5C 46.1667,1012.83 45.8333,1012.17 45.5,1011.5C 116.052,951.546 193.719,902.713 278.5,865C 447.715,792.992 624.048,768.992 807.5,793C 1006.59,821.071 1185.59,896.071 1344.5,1018C 1370.35,1039.02 1396.02,1060.19 1421.5,1081.5 Z"/></g>
<g><path style="opacity:1" fill="#195082" d="M 1327.5,1226.5 C 1205.99,1371.97 1050.99,1460.13 862.5,1491C 834.139,1495.11 805.806,1497.94 777.5,1499.5C 758.5,1499.5 739.5,1499.5 720.5,1499.5C 538.018,1490.21 379.018,1425.04 243.5,1304C 238.963,1299.63 234.63,1295.13 230.5,1290.5C 223.167,1282.5 215.5,1274.83 207.5,1267.5C 136.249,1194.41 82.5821,1109.75 46.5,1013.5C 137.102,945.702 237.768,899.868 348.5,876C 546.275,835.207 739.275,850.54 927.5,922C 1089.17,986.153 1222.5,1087.65 1327.5,1226.5 Z"/></g>
<g><path style="opacity:1" fill="#251d16" d="M 207.5,1267.5 C 215.5,1274.83 223.167,1282.5 230.5,1290.5C 229.761,1290.63 229.094,1290.46 228.5,1290C 220.906,1282.91 213.906,1275.41 207.5,1267.5 Z"/></g>
</svg>
